<svg width="80" height="80" viewBox="0 0 80 80" fill="none" xmlns="http://www.w3.org/2000/svg">
<g clip-path="url(#clip0_2_5697)">
<path d="M50.6773 68.3489V61.9321H29.3227V68.3489C29.4113 73.6909 26.3743 78.8282 26.3743 78.8282H53.6258C53.6258 78.8282 50.5887 73.691 50.6773 68.3489Z" fill="#ACACAC"/>
<path d="M29.322 63.1978H50.6772V66.3714H29.322V63.1978Z" fill="#9C9C9C"/>
<path d="M77.4554 63.1985H2.54425C1.48076 63.1985 0.618652 62.3364 0.618652 61.2729V15.2195C0.618652 14.1561 1.48076 13.2939 2.54425 13.2939H77.4554C78.5188 13.2939 79.381 14.1561 79.381 15.2195V61.273C79.381 62.3364 78.5188 63.1985 77.4554 63.1985Z" fill="#ACACAC"/>
<path d="M79.3807 15.2198V61.2735C79.3807 62.3367 78.519 63.1983 77.4543 63.1983H74.2822C75.3454 63.1983 76.207 62.3367 76.207 61.2735V15.2198C76.207 14.1567 75.3454 13.2935 74.2822 13.2935H77.4543C78.519 13.2935 79.3807 14.1567 79.3807 15.2198Z" fill="#9C9C9C"/>
<path d="M6.74878 54.0042V20.7242C6.74878 19.7482 7.5023 18.957 8.4319 18.957H71.5679C72.4975 18.957 73.251 19.7482 73.251 20.7242V54.0042H6.74878Z" fill="#C4E2FF"/>
<path d="M73.2517 20.7242V54.004H70.0781V20.7242C70.0781 19.7483 69.3244 18.9565 68.3945 18.9565H71.5681C72.4979 18.9565 73.2517 19.7483 73.2517 20.7242Z" fill="#A5D5F9"/>
<path d="M58.112 79.9998H21.8888C21.2417 79.9998 20.717 79.4751 20.717 78.828C20.717 78.1809 21.2417 77.6562 21.8888 77.6562H58.112C58.7591 77.6562 59.2837 78.1809 59.2837 78.828C59.2837 79.4751 58.7591 79.9998 58.112 79.9998Z" fill="#5A5A5A"/>
<path d="M65.9975 54.0048H14.0015V1.29367C14.0015 0.579672 14.5803 0.000976562 15.2942 0.000976562H64.7047C65.4187 0.000976562 65.9974 0.579829 65.9974 1.29367V54.0048H65.9975Z" fill="#EAF6FF"/>
<path d="M65.9982 1.29332V54.0051H62.8246V1.29332C62.8246 0.579321 62.2454 0 61.5312 0H64.7049C65.419 0 65.9982 0.579164 65.9982 1.29332Z" fill="#D8ECFE"/>
<path d="M33.7116 8.49902C32.1805 8.49902 30.9394 9.74016 30.9394 11.2713V22.1327C30.9394 22.5294 30.9394 23.2676 29.4869 23.9991C29.0847 24.2016 28.6416 24.3 28.1326 24.3C28.1309 24.3 28.129 24.3 28.1275 24.3C27.5863 24.2994 27.1207 24.1696 26.7035 23.903C25.5947 23.1947 25.5044 22.6874 25.5044 22.1441V11.2713C25.5044 9.74016 24.2633 8.49902 22.7322 8.49902C21.2011 8.49902 19.96 9.74016 19.96 11.2713V22.1443C19.96 24.8184 21.2245 26.9823 23.7185 28.5756C25.0332 29.4155 26.514 29.8426 28.1201 29.8448H28.1326C29.5089 29.8448 30.8036 29.5442 31.981 28.9513C34.885 27.489 36.4843 25.0673 36.4843 22.1329V11.2714C36.4839 9.74016 35.2427 8.49902 33.7116 8.49902Z" fill="#97D729"/>
<path d="M59.4755 25.5081L54.2375 18.6062L58.5934 12.8294C59.5152 11.6069 59.2714 9.86859 58.0489 8.9468C56.826 8.02454 55.0879 8.26874 54.1663 9.49128L50.7541 14.0165L47.3146 9.4844C46.3889 8.26483 44.6498 8.02657 43.4303 8.95195C42.2105 9.87765 41.9723 11.6167 42.8978 12.8363L47.2851 18.6171L42.2947 25.2354C41.373 26.458 41.6167 28.1962 42.8392 29.118C43.339 29.495 43.9249 29.6769 44.5063 29.6769C45.3466 29.6769 46.177 29.2963 46.722 28.5736L50.7685 23.207L55.0587 28.8601C55.6041 29.5786 56.4317 29.9566 57.2691 29.9566C57.8531 29.9566 58.442 29.7727 58.943 29.3925C60.1628 28.4667 60.4012 26.7276 59.4755 25.5081Z" fill="#97D729"/>
<path d="M36.4839 11.2706V22.1323C36.4839 25.0678 34.886 27.4893 31.9806 28.9507C30.8048 29.5441 29.5099 29.844 28.1327 29.844H28.12C27.6138 29.8425 27.1203 29.8012 26.6411 29.7172C27.4567 29.5759 28.2342 29.3205 28.9657 28.9507C31.8711 27.4893 33.4691 25.0678 33.4691 22.1323V11.2706C33.4691 10.2948 32.966 9.43782 32.2043 8.94443C32.6376 8.66196 33.1549 8.49854 33.7119 8.49854C35.243 8.49854 36.4839 9.73936 36.4839 11.2706Z" fill="#8BC727"/>
<path d="M58.944 29.3921C58.4427 29.773 57.854 29.957 57.27 29.957C56.74 29.957 56.2132 29.8047 55.7609 29.5095C55.8181 29.473 55.8735 29.4335 55.9292 29.3921C57.1494 28.467 57.3875 26.7278 56.4624 25.5076L51.6571 19.1768C51.4012 18.8394 51.4004 18.3732 51.6552 18.0351L55.5801 12.8291C56.5021 11.6073 56.2577 9.8681 55.0358 8.94616C54.9819 8.90647 54.9279 8.86835 54.8724 8.83351C55.8214 8.21779 57.0939 8.22419 58.0507 8.94616C59.2724 9.8681 59.5169 11.6072 58.595 12.8291L54.2393 18.6067L59.4773 25.5076C60.4023 26.7278 60.1642 28.467 58.944 29.3921Z" fill="#8BC727"/>
<path d="M60.0389 37.1341H19.9594C19.3122 37.1341 18.7876 36.6094 18.7876 35.9623C18.7876 35.3152 19.3122 34.7905 19.9594 34.7905H60.0389C60.686 34.7905 61.2106 35.3152 61.2106 35.9623C61.2106 36.6094 60.686 37.1341 60.0389 37.1341Z" fill="#96CCED"/>
<path d="M60.0389 41.9617H19.9594C19.3122 41.9617 18.7876 41.4371 18.7876 40.7899C18.7876 40.1428 19.3122 39.6182 19.9594 39.6182H60.0389C60.686 39.6182 61.2106 40.1428 61.2106 40.7899C61.2106 41.4371 60.686 41.9617 60.0389 41.9617Z" fill="#96CCED"/>
<path d="M60.0389 46.7893H19.9594C19.3122 46.7893 18.7876 46.2647 18.7876 45.6176C18.7876 44.9704 19.3122 44.4458 19.9594 44.4458H60.0389C60.686 44.4458 61.2106 44.9704 61.2106 45.6176C61.2106 46.2647 60.686 46.7893 60.0389 46.7893Z" fill="#96CCED"/>
<path d="M79.381 54.0044V61.2736C79.381 62.3367 78.5193 63.1984 77.4546 63.1984H2.54503C1.48029 63.1984 0.618652 62.3367 0.618652 61.2736V54.0044H79.381Z" fill="#5A5A5A"/>
<path d="M79.3807 54.0049V61.274C79.3807 62.3372 78.519 63.1989 77.4543 63.1989H74.2822C75.3454 63.1989 76.207 62.3372 76.207 61.274V54.0049H79.3807Z" fill="#444444"/>
<path d="M42.3798 59.7732H37.6193C36.9721 59.7732 36.4475 59.2486 36.4475 58.6014C36.4475 57.9543 36.9721 57.4297 37.6193 57.4297H42.3798C43.0269 57.4297 43.5515 57.9543 43.5515 58.6014C43.5515 59.2486 43.0269 59.7732 42.3798 59.7732Z" fill="#333333"/>
</g>
<defs>
<clipPath id="clip0_2_5697">
<rect width="80" height="80" fill="white"/>
</clipPath>
</defs>
</svg>
