<svg width="80" height="80" viewBox="0 0 80 80" fill="none" xmlns="http://www.w3.org/2000/svg">
<path d="M60.6864 0H19.3126C17.7871 0 16.5513 1.23586 16.5513 2.76138V68.9655H63.4478V2.76138C63.4478 1.23586 62.212 0 60.6864 0V0Z" fill="#EBBA16"/>
<path d="M44.1381 6.89631H35.8622C35.1008 6.89631 34.4829 6.27838 34.4829 5.517C34.4829 4.75563 35.1008 4.1377 35.8622 4.1377H44.1381C44.8995 4.1377 45.5174 4.75563 45.5174 5.517C45.5174 6.27838 44.8995 6.89631 44.1381 6.89631Z" fill="white"/>
<path d="M60.0602 80H19.9389C18.0671 80 16.5513 78.4841 16.5513 76.6124V63.4482H63.4478V76.6124C63.4478 78.4841 61.932 80 60.0602 80Z" fill="#EAEFF0"/>
<path d="M39.9995 75.8623C42.2848 75.8623 44.1374 74.0097 44.1374 71.7244C44.1374 69.439 42.2848 67.5864 39.9995 67.5864C37.7142 67.5864 35.8616 69.439 35.8616 71.7244C35.8616 74.0097 37.7142 75.8623 39.9995 75.8623Z" fill="#B8BEC3"/>
<path d="M42.758 17.9312L24.827 24.8277L22.0684 44.138L37.2408 56.5518L55.1718 49.6553L57.9304 30.3449L42.758 17.9312Z" fill="#DC691D"/>
<path d="M28.9674 42.7585C28.4612 42.7585 27.9743 42.4799 27.7329 41.9957C27.3922 41.3144 27.6681 40.4854 28.3495 40.1447L38.7233 34.9571L40.0115 24.655C40.1067 23.8992 40.7964 23.375 41.5508 23.4578C42.3067 23.5516 42.8433 24.2413 42.7481 24.9971L41.3688 36.0316C41.3122 36.4895 41.0295 36.8881 40.6171 37.095L29.5826 42.6123C29.3853 42.7116 29.1743 42.7585 28.9674 42.7585Z" fill="white"/>
<path d="M49.6558 45.5171C49.3385 45.5171 49.0185 45.4082 48.7592 45.1847L39.1041 36.9089C38.5261 36.4137 38.4585 35.5433 38.9551 34.9654C39.4503 34.3847 40.322 34.3185 40.8999 34.8164L50.5551 43.0923C51.133 43.5875 51.2006 44.4578 50.7041 45.0357C50.431 45.3544 50.0434 45.5171 49.6558 45.5171Z" fill="white"/>
</svg>
