<svg width="80" height="80" viewBox="0 0 80 80" fill="none" xmlns="http://www.w3.org/2000/svg">
<g clip-path="url(#clip0_2_5752)">
<path d="M71.4688 59.5572H4.02422C1.80172 59.5572 0 57.7555 0 55.533V5.63359C0 3.41109 1.80172 1.60938 4.02422 1.60938H71.4688C73.6912 1.60938 75.493 3.41109 75.493 5.63359V55.533C75.493 57.7555 73.6912 59.5572 71.4688 59.5572Z" fill="#736572"/>
<path d="M80.0004 5.63359V55.533C80.0004 57.7559 78.1991 59.5572 75.9762 59.5572H71.1473C73.3702 59.5572 75.1715 57.7559 75.1715 55.533V53.9233L68.3479 35.4261L75.1715 7.24328V5.63359C75.1715 3.41063 73.3702 1.60938 71.1473 1.60938H75.9762C78.1991 1.60953 80.0004 3.41078 80.0004 5.63359Z" fill="#615260"/>
<path d="M74.3667 54.7284H5.63419C5.18966 54.7284 4.82935 54.368 4.82935 53.9235V16.9013L45.2917 11.6699L75.1714 16.9013V53.9235C75.1715 54.3679 74.8111 54.7284 74.3667 54.7284Z" fill="white"/>
<path d="M65.5133 32.5151H52.636L48.7856 30.1006L52.636 27.686H65.5133C66.8467 27.686 67.9278 28.767 67.9278 30.1006C67.9277 31.434 66.8467 32.5151 65.5133 32.5151Z" fill="#FCF1F2"/>
<path d="M52.6355 32.5151H14.4866C13.1531 32.5151 12.072 31.4342 12.072 30.1006C12.072 28.7671 13.153 27.686 14.4866 27.686H52.6355V32.5151Z" fill="#BAF39A"/>
<path d="M68.8645 11.8411L64.7086 16.9013H4.82935V7.24332C4.82935 6.79879 5.18966 6.43848 5.63419 6.43848H64.7086L68.8645 11.8411Z" fill="#FFE077"/>
<path d="M23.7423 13.2794C22.8548 13.2794 22.1326 12.5572 22.1326 11.6697C22.1326 10.7822 22.8548 10.0601 23.7423 10.0601C24.6298 10.0601 25.3519 10.7822 25.3519 11.6697C25.3519 12.5572 24.6298 13.2794 23.7423 13.2794Z" fill="#FFC263"/>
<path d="M18.1082 13.2794C17.2207 13.2794 16.4985 12.5572 16.4985 11.6697C16.4985 10.7822 17.2207 10.0601 18.1082 10.0601C18.9957 10.0601 19.7179 10.7822 19.7179 11.6697C19.7179 12.5572 18.9957 13.2794 18.1082 13.2794Z" fill="#FFC263"/>
<path d="M12.4747 13.2794C11.5872 13.2794 10.865 12.5572 10.865 11.6697C10.865 10.7822 11.5872 10.0601 12.4747 10.0601C13.3622 10.0601 14.0844 10.7822 14.0844 11.6697C14.0844 12.5572 13.3622 13.2794 12.4747 13.2794Z" fill="#FFC263"/>
<path d="M64.7083 6.43848H74.3662C74.8107 6.43848 75.1711 6.79879 75.1711 7.24332V16.9013H64.7083V6.43848Z" fill="#FFC263"/>
<path d="M40.0001 51.7502C39.3333 51.7502 38.793 51.2098 38.793 50.543V44.7482C38.793 44.0813 39.3334 43.541 40.0001 43.541C40.6669 43.541 41.2073 44.0815 41.2073 44.7482V50.543C41.2073 51.2098 40.667 51.7502 40.0001 51.7502Z" fill="#FCF1F2"/>
<path d="M46.5194 48.2896V47.3238C46.5194 44.3749 48.5018 41.8892 51.2066 41.1264C51.7635 40.9693 54.5097 42.3017 55.583 44.5295L62.3174 58.5084C63.9972 61.9953 64.8694 65.8159 64.8694 69.6862V71.9517C64.8694 75.5076 61.9868 78.3903 58.4308 78.3903H58.7527C55.1968 78.3903 52.3141 75.5076 52.3141 71.9517C52.3141 70.4093 51.9916 68.8839 51.3672 67.4735L50.849 66.3026C50.3333 65.1376 49.1791 64.3864 47.9052 64.3864H32.0955C30.8216 64.3864 29.6674 65.1376 29.1518 66.3026L28.6335 67.4735C28.0091 68.884 27.6866 70.4093 27.6866 71.9517C27.6866 75.5076 24.804 78.3903 21.248 78.3903H17.0629C13.5069 78.3903 10.6243 75.5076 10.6243 71.9517V69.6862C10.6243 65.8159 11.4966 61.9953 13.1765 58.5084L19.9108 44.5295C20.9841 42.3017 23.2385 40.8853 25.7115 40.8853H27.0429C30.5988 40.8853 33.4815 43.7679 33.4815 47.3238V48.2896C33.4815 49.1787 34.2021 49.8993 35.0911 49.8993H44.9101C45.7988 49.8993 46.5194 49.1787 46.5194 48.2896Z" fill="#BCF1F8"/>
<path d="M69.3757 69.6865V71.9513C69.3757 75.5071 66.4929 78.3899 62.9372 78.3899H58.752C58.6473 78.3899 58.5428 78.3866 58.4398 78.3818C61.8411 78.2096 64.5468 75.3959 64.5468 71.9512V69.6863C64.5468 65.8151 63.6743 61.9954 61.9956 58.5073L55.2607 44.529C54.4479 42.8421 52.9573 41.6204 51.2061 41.1262C51.7631 40.9684 52.3506 40.8848 52.9573 40.8848H54.2886C56.7611 40.8848 59.0161 42.3013 60.0898 44.529L66.8247 58.5073C68.5034 61.9955 69.3757 65.8152 69.3757 69.6865Z" fill="#91F2F2"/>
<path d="M24.7078 61.1669C22.4853 61.1669 20.6836 59.3652 20.6836 57.1429C20.6836 54.9204 22.4853 53.1187 24.7078 53.1187C26.9303 53.1187 28.732 54.9204 28.732 57.1429C28.7319 59.3652 26.9303 61.1669 24.7078 61.1669Z" fill="white"/>
<path d="M59.3154 55.9357H56.4985V53.1188C56.4985 52.4519 55.958 51.9116 55.2913 51.9116C54.6244 51.9116 54.0841 52.4521 54.0841 53.1188V55.9357H51.2672C50.6004 55.9357 50.0601 56.4761 50.0601 57.1429C50.0601 57.8096 50.6005 58.3501 51.2672 58.3501H54.0841V61.1669C54.0841 61.8338 54.6246 62.3741 55.2913 62.3741C55.9582 62.3741 56.4985 61.8336 56.4985 61.1669V58.3501H59.3154C59.9823 58.3501 60.5226 57.8096 60.5226 57.1429C60.5226 56.4761 59.9821 55.9357 59.3154 55.9357Z" fill="white"/>
<path d="M45.6336 60.7645H42.4142C41.7473 60.7645 41.207 60.224 41.207 59.5573C41.207 58.8906 41.7475 58.3501 42.4142 58.3501H45.6336C46.3005 58.3501 46.8408 58.8906 46.8408 59.5573C46.8408 60.224 46.3005 60.7645 45.6336 60.7645Z" fill="#7DE8F9"/>
<path d="M37.5855 60.7645H34.3661C33.6992 60.7645 33.1589 60.224 33.1589 59.5573C33.1589 58.8906 33.6994 58.3501 34.3661 58.3501H37.5855C38.2524 58.3501 38.7927 58.8906 38.7927 59.5573C38.7927 60.224 38.2524 60.7645 37.5855 60.7645Z" fill="#7DE8F9"/>
<path d="M39.9995 46.1167C38.4437 46.1167 37.1826 44.8556 37.1826 43.2998C37.1826 41.744 38.4437 40.4829 39.9995 40.4829C41.5553 40.4829 42.8164 41.744 42.8164 43.2998C42.8164 44.8554 41.5553 46.1167 39.9995 46.1167Z" fill="#CBB0F2"/>
</g>
<defs>
<clipPath id="clip0_2_5752">
<rect width="80" height="80" fill="white"/>
</clipPath>
</defs>
</svg>
